<svg width="462" height="36" viewBox="0 0 462 36" fill="none" xmlns="http://www.w3.org/2000/svg">
<path d="M0 29.2575V0.561873H12.4529C15.6785 0.561873 18.1506 1.45819 19.8691 3.25084C21.5612 5.01672 22.4073 7.19732 22.4073 9.79264C22.4073 12.5217 21.5612 14.7157 19.8691 16.3746C18.177 18.0334 15.8636 18.8629 12.9288 18.8629H5.94884V29.2575H0ZM5.94884 5.61873V14.1271H11.8977C13.3783 14.1271 14.5152 13.7525 15.3084 13.0033C16.1015 12.2274 16.4981 11.1706 16.4981 9.83278C16.4981 8.49498 16.1015 7.46488 15.3084 6.74247C14.5152 5.99331 13.4047 5.61873 11.977 5.61873H5.94884Z" fill="#FF82BE"/>
<path d="M41.5257 26.7692C39.5428 28.8294 36.9914 29.8595 33.8715 29.8595C30.7517 29.8595 28.2003 28.8294 26.2173 26.7692C24.2344 24.6823 23.2429 22.087 23.2429 18.9833C23.2429 15.8796 24.2344 13.2977 26.2173 11.2375C28.2003 9.1505 30.7517 8.10702 33.8715 8.10702C36.9914 8.10702 39.5428 9.1505 41.5257 11.2375C43.5086 13.2977 44.5001 15.8796 44.5001 18.9833C44.5001 22.087 43.5086 24.6823 41.5257 26.7692ZM33.8715 25.6856C35.4843 25.6856 36.7402 25.0836 37.6391 23.8796C38.5645 22.6488 39.0272 21.0167 39.0272 18.9833C39.0272 16.9498 38.5645 15.3177 37.6391 14.087C36.7402 12.8562 35.4843 12.2408 33.8715 12.2408C32.2323 12.2408 30.9632 12.8562 30.0643 14.087C29.1653 15.291 28.7159 16.9231 28.7159 18.9833C28.7159 21.0167 29.1653 22.6488 30.0643 23.8796C30.9632 25.0836 32.2323 25.6856 33.8715 25.6856Z" fill="#FF82BE"/>
<path d="M47.0073 36V8.6689H52.2026V11.2375H52.3216C53.8286 9.1505 55.8248 8.10702 58.3101 8.10702C60.9805 8.10702 63.1221 9.11037 64.7349 11.1171C66.3477 13.1237 67.1541 15.7458 67.1541 18.9833C67.1541 22.301 66.3477 24.9498 64.7349 26.9298C63.1221 28.8829 60.9937 29.8595 58.3498 29.8595C55.7058 29.8595 53.7493 28.8829 52.4802 26.9298H52.4009V36H47.0073ZM57.1997 25.3244C58.5745 25.3244 59.6585 24.7759 60.4517 23.6789C61.2713 22.5819 61.6811 21.0702 61.6811 19.1438C61.6811 17.0836 61.2977 15.4649 60.531 14.2876C59.7643 13.1104 58.5877 12.5217 57.0014 12.5217C55.3886 12.5217 54.1988 13.1371 53.4321 14.3679C52.6653 15.5719 52.282 17.1639 52.282 19.1438C52.282 21.0435 52.705 22.5552 53.551 23.6789C54.3971 24.7759 55.6133 25.3244 57.1997 25.3244Z" fill="#FF82BE"/>
<path d="M69.664 36V8.6689H74.8593V11.2375H74.9783C76.4854 9.1505 78.4815 8.10702 80.9668 8.10702C83.6372 8.10702 85.7788 9.11037 87.3916 11.1171C89.0044 13.1237 89.8108 15.7458 89.8108 18.9833C89.8108 22.301 89.0044 24.9498 87.3916 26.9298C85.7788 28.8829 83.6504 29.8595 81.0065 29.8595C78.3625 29.8595 76.406 28.8829 75.137 26.9298H75.0576V36H69.664ZM79.8564 25.3244C81.2312 25.3244 82.3152 24.7759 83.1084 23.6789C83.928 22.5819 84.3378 21.0702 84.3378 19.1438C84.3378 17.0836 83.9545 15.4649 83.1877 14.2876C82.421 13.1104 81.2444 12.5217 79.6581 12.5217C78.0453 12.5217 76.8555 13.1371 76.0888 14.3679C75.322 15.5719 74.9387 17.1639 74.9387 19.1438C74.9387 21.0435 75.3617 22.5552 76.2078 23.6789C77.0538 24.7759 78.27 25.3244 79.8564 25.3244Z" fill="#FF82BE"/>
<path d="M92.1761 36V31.7057H94.0797C96.0891 31.7057 97.0938 30.7692 97.0938 28.8963C97.0938 27.9866 96.5782 26.1271 95.5471 23.3177L90.0741 8.6689H95.7454L98.7594 17.9398L100.068 22.4348H100.148C100.518 20.6957 100.914 19.1973 101.337 17.9398L104.193 8.6689H109.626L102.527 29.7793C101.734 32.1338 100.835 33.7525 99.8302 34.6355C98.852 35.5452 97.3582 36 95.3488 36H92.1761Z" fill="#FF82BE"/>
<path d="M130.964 29.8595C126.972 29.8595 123.693 28.4682 121.129 25.6856C118.59 22.8763 117.321 19.3177 117.321 15.01C117.321 10.6756 118.564 7.0903 121.049 4.25418C123.535 1.41806 126.826 0 130.924 0C134.309 0 137.019 0.909699 139.054 2.7291C141.117 4.52174 142.307 6.83612 142.624 9.67224H136.913C136.648 8.20067 135.988 7.03679 134.93 6.1806C133.899 5.32441 132.564 4.89632 130.924 4.89632C128.413 4.89632 126.496 5.83278 125.174 7.70569C123.852 9.5786 123.191 12.0134 123.191 15.01C123.191 17.9799 123.892 20.4013 125.293 22.2742C126.721 24.1472 128.611 25.0836 130.964 25.0836C132.63 25.0836 134.018 24.6288 135.128 23.7191C136.239 22.7826 136.886 21.5518 137.072 20.0268H142.703C142.544 22.7291 141.5 24.99 139.57 26.8094C137.428 28.8428 134.56 29.8595 130.964 29.8595Z" fill="#FF82BE"/>
<path d="M145.304 29.2575V0.561873H150.698V29.2575H145.304Z" fill="#FF82BE"/>
<path d="M154.249 29.2575V8.6689H159.643V29.2575H154.249ZM154.249 5.45819V0.561873H159.643V5.45819H154.249Z" fill="#FF82BE"/>
<path d="M161.928 12.4415V8.6689H164.705V6.98328C164.705 4.57525 165.511 2.86288 167.124 1.84615C168.763 0.829432 170.905 0.468228 173.548 0.762542V4.97659C172.306 4.92308 171.42 5.04348 170.891 5.33779C170.363 5.63211 170.098 6.28763 170.098 7.30435V8.6689H176.166V6.82274C176.166 4.41472 176.986 2.70234 178.625 1.68562C180.264 0.668897 182.459 0.307693 185.208 0.602007V4.81605C183.86 4.76254 182.908 4.88294 182.353 5.17726C181.824 5.47157 181.56 6.12709 181.56 7.14381V8.6689H185.208V12.4415H181.56V29.2575H176.166V12.4415H170.098V29.2575H164.705V12.4415H161.928Z" fill="#FF82BE"/>
<path d="M204.383 26.7692C202.4 28.8294 199.849 29.8595 196.729 29.8595C193.609 29.8595 191.058 28.8294 189.075 26.7692C187.092 24.6823 186.1 22.087 186.1 18.9833C186.1 15.8796 187.092 13.2977 189.075 11.2375C191.058 9.1505 193.609 8.10702 196.729 8.10702C199.849 8.10702 202.4 9.1505 204.383 11.2375C206.366 13.2977 207.357 15.8796 207.357 18.9833C207.357 22.087 206.366 24.6823 204.383 26.7692ZM196.729 25.6856C198.342 25.6856 199.597 25.0836 200.496 23.8796C201.422 22.6488 201.884 21.0167 201.884 18.9833C201.884 16.9498 201.422 15.3177 200.496 14.087C199.597 12.8562 198.342 12.2408 196.729 12.2408C195.09 12.2408 193.82 12.8562 192.922 14.087C192.023 15.291 191.573 16.9231 191.573 18.9833C191.573 21.0167 192.023 22.6488 192.922 23.8796C193.82 25.0836 195.09 25.6856 196.729 25.6856Z" fill="#FF82BE"/>
<path d="M215.06 8.6689V11.9599H215.179C215.813 10.7559 216.514 9.87291 217.281 9.31104C218.048 8.72241 219.013 8.42809 220.176 8.42809C220.731 8.42809 221.154 8.4816 221.445 8.58863V13.3645H221.326C219.502 13.1773 218.034 13.5786 216.924 14.5686C215.813 15.5585 215.258 17.1104 215.258 19.2241V29.2575H209.865V8.6689H215.06Z" fill="#FF82BE"/>
<path d="M230.802 29.8595C228.237 29.8595 226.162 28.8829 224.576 26.9298C222.989 24.9498 222.196 22.301 222.196 18.9833C222.196 15.7726 223.002 13.1639 224.615 11.1572C226.254 9.12375 228.343 8.10702 230.881 8.10702C233.42 8.10702 235.336 9.12375 236.632 11.1572H236.751V0.561873H242.144V29.2575H236.949V26.5686H236.87C235.548 28.7625 233.525 29.8595 230.802 29.8595ZM231.992 25.2843C233.578 25.2843 234.781 24.7358 235.601 23.6388C236.447 22.5418 236.87 21.0301 236.87 19.1037C236.87 14.7157 235.297 12.5217 232.15 12.5217C230.696 12.5217 229.586 13.1104 228.819 14.2876C228.052 15.4649 227.669 17.0301 227.669 18.9833C227.669 20.99 228.039 22.5418 228.779 23.6388C229.546 24.7358 230.617 25.2843 231.992 25.2843Z" fill="#FF82BE"/>
<path d="M252.748 29.2575V0.561873H265.201C268.427 0.561873 270.899 1.45819 272.617 3.25084C274.31 5.01672 275.156 7.19732 275.156 9.79264C275.156 12.5217 274.31 14.7157 272.617 16.3746C270.925 18.0334 268.612 18.8629 265.677 18.8629H258.697V29.2575H252.748ZM258.697 5.61873V14.1271H264.646C266.127 14.1271 267.263 13.7525 268.057 13.0033C268.85 12.2274 269.246 11.1706 269.246 9.83278C269.246 8.49498 268.85 7.46488 268.057 6.74247C267.263 5.99331 266.153 5.61873 264.725 5.61873H258.697Z" fill="#FF82BE"/>
<path d="M282.759 8.6689V11.9599H282.878C283.512 10.7559 284.213 9.87291 284.98 9.31104C285.747 8.72241 286.712 8.42809 287.875 8.42809C288.43 8.42809 288.853 8.4816 289.144 8.58863V13.3645H289.025C287.201 13.1773 285.733 13.5786 284.623 14.5686C283.512 15.5585 282.957 17.1104 282.957 19.2241V29.2575H277.564V8.6689H282.759Z" fill="#FF82BE"/>
<path d="M308.178 26.7692C306.195 28.8294 303.644 29.8595 300.524 29.8595C297.404 29.8595 294.852 28.8294 292.869 26.7692C290.887 24.6823 289.895 22.087 289.895 18.9833C289.895 15.8796 290.887 13.2977 292.869 11.2375C294.852 9.1505 297.404 8.10702 300.524 8.10702C303.644 8.10702 306.195 9.1505 308.178 11.2375C310.161 13.2977 311.152 15.8796 311.152 18.9833C311.152 22.087 310.161 24.6823 308.178 26.7692ZM300.524 25.6856C302.136 25.6856 303.392 25.0836 304.291 23.8796C305.217 22.6488 305.679 21.0167 305.679 18.9833C305.679 16.9498 305.217 15.3177 304.291 14.087C303.392 12.8562 302.136 12.2408 300.524 12.2408C298.884 12.2408 297.615 12.8562 296.716 14.087C295.817 15.291 295.368 16.9231 295.368 18.9833C295.368 21.0167 295.817 22.6488 296.716 23.8796C297.615 25.0836 298.884 25.6856 300.524 25.6856Z" fill="#FF82BE"/>
<path d="M321.274 29.8595C318.709 29.8595 316.634 28.8829 315.048 26.9298C313.461 24.9498 312.668 22.301 312.668 18.9833C312.668 15.7726 313.474 13.1639 315.087 11.1572C316.726 9.12375 318.815 8.10702 321.353 8.10702C323.891 8.10702 325.808 9.12375 327.104 11.1572H327.223V0.561873H332.616V29.2575H327.421V26.5686H327.342C326.02 28.7625 323.997 29.8595 321.274 29.8595ZM322.464 25.2843C324.05 25.2843 325.253 24.7358 326.073 23.6388C326.919 22.5418 327.342 21.0301 327.342 19.1037C327.342 14.7157 325.769 12.5217 322.622 12.5217C321.168 12.5217 320.058 13.1104 319.291 14.2876C318.524 15.4649 318.141 17.0301 318.141 18.9833C318.141 20.99 318.511 22.5418 319.251 23.6388C320.018 24.7358 321.089 25.2843 322.464 25.2843Z" fill="#FF82BE"/>
<path d="M354.167 29.2575H348.972V26.8495H348.853C348.113 27.8662 347.293 28.6154 346.394 29.097C345.522 29.5786 344.398 29.8194 343.023 29.8194C340.802 29.8194 339.07 29.1505 337.828 27.8127C336.585 26.4749 335.964 24.6689 335.964 22.3946V8.6689H341.318V21.4716C341.318 23.9599 342.442 25.204 344.689 25.204C345.932 25.204 346.923 24.7759 347.663 23.9197C348.404 23.0635 348.774 21.9398 348.774 20.5485V8.6689H354.167V29.2575Z" fill="#FF82BE"/>
<path d="M367.095 29.8595C363.949 29.8595 361.424 28.8294 359.52 26.7692C357.616 24.709 356.665 22.1137 356.665 18.9833C356.665 15.8528 357.59 13.2575 359.441 11.1973C361.318 9.13712 363.777 8.10702 366.817 8.10702C369.382 8.10702 371.471 8.7893 373.083 10.1538C374.696 11.5184 375.688 13.3512 376.058 15.6522H370.783C370.598 14.7157 370.175 13.9532 369.514 13.3645C368.853 12.7759 368.034 12.4816 367.055 12.4816C365.469 12.4816 364.253 13.0569 363.407 14.2074C362.561 15.3579 362.138 16.9498 362.138 18.9833C362.138 20.99 362.547 22.5819 363.367 23.7592C364.187 24.9097 365.39 25.4849 366.976 25.4849C369.329 25.4849 370.691 24.3211 371.061 21.9933H376.256C376.071 24.2676 375.159 26.1538 373.52 27.6522C371.88 29.1237 369.739 29.8595 367.095 29.8595Z" fill="#FF82BE"/>
<path d="M377.419 12.2809V8.6689H380.235V2.24749H385.509V8.6689H388.999V12.2809H385.509V23.1973C385.509 24.5619 386.184 25.2441 387.532 25.2441L389.118 25.204V29.2174C388.299 29.2709 387.175 29.2977 385.747 29.2977C384.187 29.2977 382.879 28.9231 381.821 28.1739C380.764 27.398 380.235 26.1271 380.235 24.3612V12.2809H377.419Z" fill="#FF82BE"/>
<path d="M391.777 29.2575V8.6689H397.17V29.2575H391.777ZM391.777 5.45819V0.561873H397.17V5.45819H391.777Z" fill="#FF82BE"/>
<path d="M417.937 26.7692C415.954 28.8294 413.403 29.8595 410.283 29.8595C407.163 29.8595 404.612 28.8294 402.629 26.7692C400.646 24.6823 399.654 22.087 399.654 18.9833C399.654 15.8796 400.646 13.2977 402.629 11.2375C404.612 9.1505 407.163 8.10702 410.283 8.10702C413.403 8.10702 415.954 9.1505 417.937 11.2375C419.92 13.2977 420.911 15.8796 420.911 18.9833C420.911 22.087 419.92 24.6823 417.937 26.7692ZM410.283 25.6856C411.896 25.6856 413.152 25.0836 414.05 23.8796C414.976 22.6488 415.439 21.0167 415.439 18.9833C415.439 16.9498 414.976 15.3177 414.05 14.087C413.152 12.8562 411.896 12.2408 410.283 12.2408C408.644 12.2408 407.375 12.8562 406.476 14.087C405.577 15.291 405.127 16.9231 405.127 18.9833C405.127 21.0167 405.577 22.6488 406.476 23.8796C407.375 25.0836 408.644 25.6856 410.283 25.6856Z" fill="#FF82BE"/>
<path d="M428.693 8.6689V11.4783H428.812C430.214 9.23077 432.223 8.10702 434.84 8.10702C436.929 8.10702 438.621 8.82943 439.917 10.2742C441.212 11.6923 441.86 13.5385 441.86 15.8127V29.2575H436.466V16.6154C436.466 15.4916 436.149 14.5819 435.515 13.8863C434.907 13.1906 434.047 12.8428 432.937 12.8428C431.747 12.8428 430.756 13.2843 429.962 14.1672C429.196 15.0502 428.812 16.1873 428.812 17.5786V29.2575H423.419V8.6689H428.693Z" fill="#FF82BE"/>
<path d="M453.434 29.8595C450.525 29.8595 448.252 29.2174 446.612 27.9331C444.973 26.6221 444.074 24.8428 443.916 22.5953H448.913C449.256 24.8696 450.737 26.0067 453.354 26.0067C454.544 26.0067 455.456 25.7926 456.091 25.3645C456.752 24.9365 457.082 24.3612 457.082 23.6388C457.082 23.3712 457.029 23.1304 456.924 22.9164C456.844 22.7023 456.686 22.5151 456.448 22.3545C456.236 22.1672 456.038 22.0201 455.853 21.913C455.694 21.806 455.403 21.699 454.98 21.592C454.557 21.4849 454.227 21.4047 453.989 21.3512C453.777 21.2977 453.394 21.2308 452.839 21.1505C452.31 21.0435 451.94 20.9632 451.728 20.9097C450.618 20.6957 449.706 20.4816 448.992 20.2676C448.304 20.0268 447.577 19.6923 446.811 19.2642C446.044 18.8094 445.462 18.2074 445.066 17.4582C444.695 16.6823 444.51 15.7592 444.51 14.689C444.51 12.5485 445.277 10.9164 446.811 9.79264C448.371 8.6689 450.367 8.10702 452.799 8.10702C455.417 8.10702 457.466 8.72241 458.946 9.95318C460.453 11.1572 461.313 12.8161 461.524 14.9298H456.646C456.435 12.9231 455.126 11.9197 452.72 11.9197C451.636 11.9197 450.777 12.1204 450.142 12.5217C449.534 12.9231 449.23 13.4849 449.23 14.2074C449.23 14.4482 449.269 14.6756 449.349 14.8896C449.455 15.0769 449.613 15.2508 449.825 15.4114C450.063 15.5451 450.287 15.6656 450.499 15.7726C450.71 15.8528 451.014 15.9465 451.411 16.0535C451.808 16.1338 452.151 16.214 452.442 16.2943C452.733 16.3478 453.13 16.4281 453.632 16.5351C454.134 16.6154 454.531 16.6823 454.822 16.7358C455.668 16.9231 456.355 17.097 456.884 17.2575C457.439 17.3913 458.074 17.6321 458.788 17.9799C459.501 18.301 460.057 18.6756 460.453 19.1037C460.876 19.505 461.233 20.0669 461.524 20.7893C461.841 21.4849 462 22.301 462 23.2375C462 25.2709 461.207 26.8896 459.62 28.0936C458.061 29.2709 455.998 29.8595 453.434 29.8595Z" fill="#FF82BE"/>
</svg>
