<svg width="1130" height="586" viewBox="0 0 1130 586" fill="none" xmlns="http://www.w3.org/2000/svg">
<path d="M270.893 154V0.990234H338.089C355.851 0.990234 369.119 6.12623 378.107 15.3282C386.667 24.1022 391.803 36.0862 391.803 50.2102C391.803 79.1002 372.757 98.5742 340.657 98.5742H302.993V154H270.893ZM302.993 27.9542V73.3222H335.093C351.357 73.3222 359.917 64.3342 359.917 50.4242C359.917 36.0862 350.929 27.9542 335.521 27.9542H302.993Z" fill="#FF82BE"/>
<path d="M453.664 157.21C419.638 157.21 396.312 131.958 396.312 99.2162C396.312 66.4742 419.638 41.2222 453.664 41.2222C487.69 41.2222 511.016 66.4742 511.016 99.2162C511.016 131.958 487.69 157.21 453.664 157.21ZM453.664 134.954C471.426 134.954 481.484 120.616 481.484 99.2162C481.484 77.8162 471.426 63.2642 453.664 63.2642C435.688 63.2642 425.844 77.8162 425.844 99.2162C425.844 120.616 435.688 134.954 453.664 134.954Z" fill="#FF82BE"/>
<path d="M524.544 189.952V44.2182H552.578V57.9142H553.22C560.282 48.2842 570.554 41.2222 585.534 41.2222C614.638 41.2222 633.256 64.9762 633.256 99.2162C633.256 134.74 613.996 157.21 585.748 157.21C570.34 157.21 560.282 151.004 554.076 141.588H553.648V189.952H524.544ZM579.542 133.028C594.308 133.028 603.724 120.83 603.724 100.072C603.724 79.3142 596.448 64.7622 578.472 64.7622C560.282 64.7622 553.006 80.3842 553.006 100.072C553.006 119.974 562.208 133.028 579.542 133.028Z" fill="#FF82BE"/>
<path d="M646.8 189.952V44.2182H674.834V57.9142H675.476C682.538 48.2842 692.81 41.2222 707.79 41.2222C736.894 41.2222 755.512 64.9762 755.512 99.2162C755.512 134.74 736.252 157.21 708.004 157.21C692.596 157.21 682.538 151.004 676.332 141.588H675.904V189.952H646.8ZM701.798 133.028C716.564 133.028 725.98 120.83 725.98 100.072C725.98 79.3142 718.704 64.7622 700.728 64.7622C682.538 64.7622 675.262 80.3842 675.262 100.072C675.262 119.974 684.464 133.028 701.798 133.028Z" fill="#FF82BE"/>
<path d="M768.275 189.952V167.054H778.547C790.103 167.054 794.811 161.062 794.811 152.074C794.811 146.082 792.671 139.02 786.465 122.328L756.933 44.2182H787.535L803.799 93.6522C807.223 103.71 810.861 117.62 810.861 117.62H811.289C811.289 117.62 814.285 103.71 817.709 93.6522L833.117 44.2182H862.435L824.129 156.782C815.783 181.178 807.651 189.952 785.395 189.952H768.275Z" fill="#FF82BE"/>
<path d="M295.66 371.21C252.646 371.21 222.044 338.04 222.044 292.03C222.044 246.662 250.292 211.994 295.446 211.994C333.11 211.994 355.366 234.464 358.576 263.568H327.76C324.978 248.16 313.422 238.102 295.446 238.102C267.198 238.102 253.716 261.642 253.716 292.03C253.716 323.274 269.98 345.744 295.66 345.744C313.85 345.744 326.69 334.83 328.616 318.78H359.004C358.148 332.262 352.37 345.316 342.098 354.946C331.612 364.79 316.846 371.21 295.66 371.21Z" fill="#FF82BE"/>
<path d="M373.041 368V214.99H402.145V368H373.041Z" fill="#FF82BE"/>
<path d="M421.306 368V258.218H450.41V368H421.306ZM421.306 241.098V214.99H450.41V241.098H421.306Z" fill="#FF82BE"/>
<path d="M462.744 278.334V258.218H477.724V249.23C477.724 222.48 498.482 213.064 525.446 216.06V238.53C512.82 237.888 506.828 239.6 506.828 250.942V258.218H539.57V248.374C539.57 221.624 560.328 212.208 588.362 215.204V237.674C574.666 237.032 568.674 238.744 568.674 250.086V258.218H588.362V278.334H568.674V368H539.57V278.334H506.828V368H477.724V278.334H462.744Z" fill="#FF82BE"/>
<path d="M650.527 371.21C616.501 371.21 593.175 345.958 593.175 313.216C593.175 280.474 616.501 255.222 650.527 255.222C684.553 255.222 707.879 280.474 707.879 313.216C707.879 345.958 684.553 371.21 650.527 371.21ZM650.527 348.954C668.289 348.954 678.347 334.616 678.347 313.216C678.347 291.816 668.289 277.264 650.527 277.264C632.551 277.264 622.707 291.816 622.707 313.216C622.707 334.616 632.551 348.954 650.527 348.954Z" fill="#FF82BE"/>
<path d="M749.442 258.218V275.766H750.084C756.718 263.354 764.208 256.934 777.048 256.934C780.258 256.934 782.184 257.148 783.896 257.79V283.256H783.254C764.208 281.33 750.512 291.388 750.512 314.5V368H721.408V258.218H749.442Z" fill="#FF82BE"/>
<path d="M834.386 371.21C806.78 371.21 787.948 348.74 787.948 313.216C787.948 278.976 807.422 255.222 834.814 255.222C850.222 255.222 859.852 262.284 865.844 271.486H866.486V214.99H895.59V368H867.556V353.662H867.128C860.708 364.148 849.794 371.21 834.386 371.21ZM840.806 346.814C858.14 346.814 867.128 333.974 867.128 313.858C867.128 292.886 860.28 278.762 841.662 278.762C825.612 278.762 817.48 292.886 817.48 313.216C817.48 334.402 825.826 346.814 840.806 346.814Z" fill="#FF82BE"/>
<path d="M0.466797 582V428.99H67.6628C85.4248 428.99 98.6928 434.126 107.681 443.328C116.241 452.102 121.377 464.086 121.377 478.21C121.377 507.1 102.331 526.574 70.2308 526.574H32.5668V582H0.466797ZM32.5668 455.954V501.322H64.6668C80.9308 501.322 89.4908 492.334 89.4908 478.424C89.4908 464.086 80.5028 455.954 65.0948 455.954H32.5668Z" fill="#FF82BE"/>
<path d="M162.405 472.218V489.766H163.047C169.681 477.354 177.171 470.934 190.011 470.934C193.221 470.934 195.147 471.148 196.859 471.79V497.256H196.217C177.171 495.33 163.475 505.388 163.475 528.5V582H134.371V472.218H162.405Z" fill="#FF82BE"/>
<path d="M258.263 585.21C224.237 585.21 200.911 559.958 200.911 527.216C200.911 494.474 224.237 469.222 258.263 469.222C292.289 469.222 315.615 494.474 315.615 527.216C315.615 559.958 292.289 585.21 258.263 585.21ZM258.263 562.954C276.025 562.954 286.083 548.616 286.083 527.216C286.083 505.816 276.025 491.264 258.263 491.264C240.287 491.264 230.443 505.816 230.443 527.216C230.443 548.616 240.287 562.954 258.263 562.954Z" fill="#FF82BE"/>
<path d="M370.232 585.21C342.626 585.21 323.794 562.74 323.794 527.216C323.794 492.976 343.268 469.222 370.66 469.222C386.068 469.222 395.698 476.284 401.69 485.486H402.332V428.99H431.436V582H403.402V567.662H402.974C396.554 578.148 385.64 585.21 370.232 585.21ZM376.652 560.814C393.986 560.814 402.974 547.974 402.974 527.858C402.974 506.886 396.126 492.762 377.508 492.762C361.458 492.762 353.326 506.886 353.326 527.216C353.326 548.402 361.672 560.814 376.652 560.814Z" fill="#FF82BE"/>
<path d="M547.725 582H519.691V569.16H519.049C511.559 579.218 502.999 584.996 487.591 584.996C463.195 584.996 449.499 569.374 449.499 545.406V472.218H478.389V540.484C478.389 553.324 484.167 560.386 496.579 560.386C510.275 560.386 518.621 550.114 518.621 535.562V472.218H547.725V582Z" fill="#FF82BE"/>
<path d="M617.482 585.21C582.814 585.21 561.2 559.958 561.2 527.216C561.2 494.474 582.6 469.222 615.984 469.222C644.446 469.222 661.994 485.7 665.846 509.454H637.384C635.458 499.824 627.968 492.548 617.268 492.548C599.72 492.548 590.732 506.03 590.732 527.216C590.732 547.974 599.078 561.884 616.84 561.884C628.61 561.884 636.956 555.678 638.882 543.266H666.916C664.99 566.592 646.8 585.21 617.482 585.21Z" fill="#FF82BE"/>
<path d="M673.191 491.478V472.218H688.385V437.978H716.847V472.218H735.679V491.478H716.847V549.686C716.847 557.818 721.341 560.6 727.761 560.6C731.399 560.6 736.321 560.386 736.321 560.386V581.786C736.321 581.786 729.687 582.214 718.131 582.214C704.007 582.214 688.385 576.65 688.385 555.892V491.478H673.191Z" fill="#FF82BE"/>
<path d="M750.666 582V472.218H779.77V582H750.666ZM750.666 455.098V428.99H779.77V455.098H750.666Z" fill="#FF82BE"/>
<path d="M850.525 585.21C816.499 585.21 793.173 559.958 793.173 527.216C793.173 494.474 816.499 469.222 850.525 469.222C884.551 469.222 907.877 494.474 907.877 527.216C907.877 559.958 884.551 585.21 850.525 585.21ZM850.525 562.954C868.287 562.954 878.345 548.616 878.345 527.216C878.345 505.816 868.287 491.264 850.525 491.264C832.549 491.264 822.705 505.816 822.705 527.216C822.705 548.616 832.549 562.954 850.525 562.954Z" fill="#FF82BE"/>
<path d="M949.868 472.218V487.198H950.51C958 475.428 968.058 469.222 983.038 469.222C1005.72 469.222 1020.92 486.342 1020.92 510.31V582H991.812V514.59C991.812 502.82 984.964 494.474 972.766 494.474C959.926 494.474 950.51 504.746 950.51 519.726V582H921.406V472.218H949.868Z" fill="#FF82BE"/>
<path d="M1083.37 585.21C1051.48 585.21 1033.72 569.802 1032.01 546.476H1058.97C1060.9 559.102 1069.88 564.666 1082.94 564.666C1095.78 564.666 1103.05 559.744 1103.05 552.04C1103.05 541.554 1089.15 540.484 1074.17 537.488C1054.48 533.636 1035.22 528.286 1035.22 504.318C1035.22 480.564 1054.9 469.222 1079.94 469.222C1108.83 469.222 1124.88 483.56 1127.02 505.602H1100.7C1099.42 493.832 1091.93 489.552 1079.52 489.552C1068.17 489.552 1060.68 493.832 1060.68 501.75C1060.68 511.166 1075.23 512.022 1090.86 515.232C1109.26 519.084 1129.59 524.22 1129.59 549.9C1129.59 571.942 1110.76 585.21 1083.37 585.21Z" fill="#FF82BE"/>
</svg>
